HIERARCHY
ROOT Hips
{
    OFFSET   0.000000   0.000000   0.000000
    CHANNELS 6 Xposition Yposition Zposition Zrotation Xrotation Yrotation
    JOINT Chest
    {
        OFFSET   0.000000   8.007230   0.000000
        CHANNELS 3 Zrotation Xrotation Yrotation
        JOINT Chest2
        {
            OFFSET   0.000000  22.077100   0.000000
            CHANNELS 3 Zrotation Xrotation Yrotation
            JOINT Neck
            {
                OFFSET   0.000000  23.255100   0.000000
                CHANNELS 3 Zrotation Xrotation Yrotation
                JOINT Head
                {
                    OFFSET   0.000000  14.370100   1.956600
                    CHANNELS 3 Zrotation Xrotation Yrotation
                    End Site
                    {
                        OFFSET   0.000000  19.566000   0.000000
                    }
                }
            }
            JOINT LeftCollar
            {
                OFFSET   3.911900  19.017000  -0.467063
                CHANNELS 3 Zrotation Xrotation Yrotation
                JOINT LeftShoulder
                {
                    OFFSET  10.383700   0.000000   0.000000
                    CHANNELS 3 Zrotation Xrotation Yrotation
                    JOINT LeftElbow
                    {
                        OFFSET  26.662100   0.001193   0.000980
                        CHANNELS 3 Zrotation Xrotation Yrotation
                        JOINT LeftWrist
                        {
                            OFFSET  28.869000  -0.000059  -0.000082
                            CHANNELS 3 Zrotation Xrotation Yrotation
                            JOINT LeftFinger0
                            {
                                OFFSET   2.044650  -2.323450   3.252850
                                CHANNELS 3 Zrotation Xrotation Yrotation
                                JOINT LeftFinger01
                                {
                                    OFFSET   3.088130   0.000000   0.000000
                                    CHANNELS 3 Zrotation Xrotation Yrotation
                                    JOINT LeftFinger02
                                    {
                                        OFFSET   2.639460   0.000000   0.000000
                                        CHANNELS 3 Zrotation Xrotation Yrotation
                                        End Site
                                        {
                                            OFFSET   2.582190   0.000000   0.000000
                                        }
                                    }
                                }
                            }
                            JOINT LeftFinger1
                            {
                                OFFSET   8.364480   0.000000   3.252850
                                CHANNELS 3 Zrotation Xrotation Yrotation
                                JOINT LeftFinger11
                                {
                                    OFFSET   4.646930   0.000000   0.000000
                                    CHANNELS 3 Zrotation Xrotation Yrotation
                                    JOINT LeftFinger12
                                    {
                                        OFFSET   2.323470   0.000000   0.000000
                                        CHANNELS 3 Zrotation Xrotation Yrotation
                                        End Site
                                        {
                                            OFFSET   2.273050   0.000000   0.000000
                                        }
                                    }
                                }
                            }
                            JOINT LeftFinger2
                            {
                                OFFSET   8.364490   0.000016   1.078090
                                CHANNELS 3 Zrotation Xrotation Yrotation
                                JOINT LeftFinger21
                                {
                                    OFFSET   5.111610   0.000000   0.000000
                                    CHANNELS 3 Zrotation Xrotation Yrotation
                                    JOINT LeftFinger22
                                    {
                                        OFFSET   2.788150   0.000016   0.000000
                                        CHANNELS 3 Zrotation Xrotation Yrotation
                                        End Site
                                        {
                                            OFFSET   2.727660   0.000000   0.000000
                                        }
                                    }
                                }
                            }
                            JOINT LeftFinger3
                            {
                                OFFSET   7.899780   0.000015  -1.078090
                                CHANNELS 3 Zrotation Xrotation Yrotation
                                JOINT LeftFinger31
                                {
                                    OFFSET   4.646930   0.000000   0.000000
                                    CHANNELS 3 Zrotation Xrotation Yrotation
                                    JOINT LeftFinger32
                                    {
                                        OFFSET   2.323470   0.000000   0.000000
                                        CHANNELS 3 Zrotation Xrotation Yrotation
                                        End Site
                                        {
                                            OFFSET   2.273050   0.000000   0.000000
                                        }
                                    }
                                }
                            }
                            JOINT LeftFinger4
                            {
                                OFFSET   7.435090   0.000000  -3.252850
                                CHANNELS 3 Zrotation Xrotation Yrotation
                                JOINT LeftFinger41
                                {
                                    OFFSET   3.717550   0.000000   0.000000
                                    CHANNELS 3 Zrotation Xrotation Yrotation
                                    JOINT LeftFinger42
                                    {
                                        OFFSET   1.858770   0.000000   0.000000
                                        CHANNELS 3 Zrotation Xrotation Yrotation
                                        End Site
                                        {
                                            OFFSET   1.818440   0.000000   0.000000
                                        }
                                    }
                                }
                            }
                        }
                    }
                }
            }
            JOINT RightCollar
            {
                OFFSET  -3.911910  19.017000  -0.467062
                CHANNELS 3 Zrotation Xrotation Yrotation
                JOINT RightShoulder
                {
                    OFFSET -10.383700   0.000014   0.000000
                    CHANNELS 3 Zrotation Xrotation Yrotation
                    JOINT RightElbow
                    {
                        OFFSET -26.662100   0.001225   0.001091
                        CHANNELS 3 Zrotation Xrotation Yrotation
                        JOINT RightWrist
                        {
                            OFFSET -28.869000  -0.000020  -0.000085
                            CHANNELS 3 Zrotation Xrotation Yrotation
                            JOINT RightFinger0
                            {
                                OFFSET  -2.044650  -2.323490   3.252850
                                CHANNELS 3 Zrotation Xrotation Yrotation
                                JOINT RightFinger01
                                {
                                    OFFSET  -3.088130   0.000000   0.000000
                                    CHANNELS 3 Zrotation Xrotation Yrotation
                                    JOINT RightFinger02
                                    {
                                        OFFSET  -2.639460   0.000000   0.000000
                                        CHANNELS 3 Zrotation Xrotation Yrotation
                                        End Site
                                        {
                                            OFFSET  -2.582190   0.000000   0.000000
                                        }
                                    }
                                }
                            }
                            JOINT RightFinger1
                            {
                                OFFSET  -8.364480   0.000000   3.252850
                                CHANNELS 3 Zrotation Xrotation Yrotation
                                JOINT RightFinger11
                                {
                                    OFFSET  -4.646930   0.000000   0.000000
                                    CHANNELS 3 Zrotation Xrotation Yrotation
                                    JOINT RightFinger12
                                    {
                                        OFFSET  -2.323470   0.000000   0.000000
                                        CHANNELS 3 Zrotation Xrotation Yrotation
                                        End Site
                                        {
                                            OFFSET  -2.273050   0.000000   0.000000
                                        }
                                    }
                                }
                            }
                            JOINT RightFinger2
                            {
                                OFFSET  -8.364480   0.000000   1.078090
                                CHANNELS 3 Zrotation Xrotation Yrotation
                                JOINT RightFinger21
                                {
                                    OFFSET  -5.111620   0.000000   0.000000
                                    CHANNELS 3 Zrotation Xrotation Yrotation
                                    JOINT RightFinger22
                                    {
                                        OFFSET  -2.788160   0.000000   0.000000
                                        CHANNELS 3 Zrotation Xrotation Yrotation
                                        End Site
                                        {
                                            OFFSET  -2.727660   0.000000   0.000000
                                        }
                                    }
                                }
                            }
                            JOINT RightFinger3
                            {
                                OFFSET  -7.899780   0.000000  -1.078090
                                CHANNELS 3 Zrotation Xrotation Yrotation
                                JOINT RightFinger31
                                {
                                    OFFSET  -4.646930   0.000000   0.000000
                                    CHANNELS 3 Zrotation Xrotation Yrotation
                                    JOINT RightFinger32
                                    {
                                        OFFSET  -2.323470   0.000000   0.000000
                                        CHANNELS 3 Zrotation Xrotation Yrotation
                                        End Site
                                        {
                                            OFFSET  -2.273050   0.000000   0.000000
                                        }
                                    }
                                }
                            }
                            JOINT RightFinger4
                            {
                                OFFSET  -7.435090   0.000000  -3.252850
                                CHANNELS 3 Zrotation Xrotation Yrotation
                                JOINT RightFinger41
                                {
                                    OFFSET  -3.717550   0.000000   0.000000
                                    CHANNELS 3 Zrotation Xrotation Yrotation
                                    JOINT RightFinger42
                                    {
                                        OFFSET  -1.858760   0.000000   0.000000
                                        CHANNELS 3 Zrotation Xrotation Yrotation
                                        End Site
                                        {
                                            OFFSET  -1.818440   0.000000   0.000000
                                        }
                                    }
                                }
                            }
                        }
                    }
                }
            }
        }
    }
    JOINT LeftHip
    {
        OFFSET   9.783030   0.000000   0.000000
        CHANNELS 3 Zrotation Xrotation Yrotation
        JOINT LeftKnee
        {
            OFFSET   0.000063 -41.789100   0.000608
            CHANNELS 3 Zrotation Xrotation Yrotation
            JOINT LeftAnkle
            {
                OFFSET   0.000048 -41.133200  -0.000184
                CHANNELS 3 Zrotation Xrotation Yrotation
                JOINT LeftToe
                {
                    OFFSET   0.000000  -6.358960  14.674500
                    CHANNELS 3 Zrotation Xrotation Yrotation
                    End Site
                    {
                        OFFSET   0.000000   0.000000   3.913200
                    }
                }
            }
        }
    }
    JOINT RightHip
    {
        OFFSET  -9.783030   0.000000   0.000000
        CHANNELS 3 Zrotation Xrotation Yrotation
        JOINT RightKnee
        {
            OFFSET   0.000071 -41.789100   0.001239
            CHANNELS 3 Zrotation Xrotation Yrotation
            JOINT RightAnkle
            {
                OFFSET   0.000037 -41.133200  -0.000166
                CHANNELS 3 Zrotation Xrotation Yrotation
                JOINT RightToe
                {
                    OFFSET   0.000000  -6.358960  14.674500
                    CHANNELS 3 Zrotation Xrotation Yrotation
                    End Site
                    {
                        OFFSET   0.000000   0.000000   3.913200
                    }
                }
            }
        }
    }
}
MOTION
Frames: 4
Frame Time:   0.016667
  5.651170  89.163000   0.172982  -6.765250 -18.423900  -6.264320   0.815042   8.377840   0.860574   1.526140  16.766400   1.625650  -0.537610  -1.766160  -0.013836  -0.885486  -3.580400   0.016514  -1.533540  -3.041520  -3.888770 -46.654800  -3.935600 -73.609000  33.646100 -13.487400 -57.248600  11.937300  51.881600  -7.034270  48.924300  45.807100 -91.300500  -3.377030  -0.000330   0.000085   3.311480   0.000457  -0.002271  19.271400  -5.470170 -15.251100  -0.000000  -0.002406  -0.004004  -0.000000  -0.001318  -0.002954  11.394700   0.100976   0.494126  -0.000333  -0.001177  -0.001030  -0.000000  -0.000390  -0.001010   4.699140   0.659205   7.914880  -0.000000  -0.000493  -0.002483  -0.000000  -0.001038  -0.004659  -5.846530  -3.471190  30.619500 -10.194800  -0.000251  -0.008172  -6.789760  -0.000938  -0.010254   8.551040  -2.622350   5.842560  72.864500  17.473100  -2.407080   0.623054 -10.498200  12.822300 -16.190000   0.270148   1.604300 -36.222100  24.445600  61.605800  27.944400   0.004772  -0.002471   8.972200   0.000000   0.005974  30.191600   5.781550   9.825280  25.107800   0.003205  -0.000262  17.575400   0.001664   0.000469  28.456100   3.191670   5.867530  37.564900  -0.003362  -0.004360  25.018300  -0.004217  -0.000303  28.035500   2.931770   5.486840  33.216400  -0.002978  -0.001666  22.122200  -0.003023  -0.000691  36.006300  -0.002376  -0.002121  54.009400  -0.002402  -0.002127  35.970400  -0.006001  -0.003111   0.314020  21.464100   3.664460  -0.113762  -0.000681   5.946950   1.242110  -4.352630   5.499890  -0.000000   0.000000  -0.000000   3.831160  13.799200  -5.633570  -4.176240  13.973200  -8.195200   2.404910  -8.537620   2.473390   0.000000   0.000000   0.000000
  5.623130  89.169400   0.139021  -6.804360 -18.329900  -6.377770   0.804166   8.349290   0.885175   1.500580  16.709500   1.677570  -0.529377  -1.775930  -0.013765  -0.871821  -3.600210   0.015536  -1.531260  -3.011690  -3.886300 -46.593100  -3.981830 -73.536100  33.776100 -13.392800 -57.338800  12.231600  51.985900  -7.294800  48.740500  45.697700 -91.120500  -3.872000  -0.000494   0.000059   3.064000   0.000437  -0.002253  19.290800  -5.379280 -14.994100  -0.000000  -0.002464  -0.004092  -0.000000  -0.001353  -0.003017  11.787300   0.107520   0.516863  -0.000356  -0.001176  -0.000871  -0.000000  -0.000371  -0.001088   5.149490   0.733460   8.081670  -0.000000  -0.000366  -0.002489  -0.000000  -0.001037  -0.004409  -5.878350  -3.480270  30.517300 -10.243000  -0.000369  -0.008413  -6.821830  -0.001118  -0.010307   8.563470  -2.604960   5.820700  72.829900  17.496500  -2.397110   0.613635 -10.494400  12.874800 -16.205200   0.274295   1.618350 -36.239200  24.472800  61.566500  27.967300   0.004779  -0.002466   8.983630   0.000000   0.005972  30.186300   5.794610   9.846670  25.106600   0.003231  -0.000269  17.574600   0.001657   0.000459  28.453900   3.204250   5.890820  37.561100  -0.003363  -0.004360  25.015700  -0.004218  -0.000303  28.031900   2.949640   5.520530  33.212100  -0.002981  -0.001666  22.119300  -0.003024  -0.000670  35.995400   0.001130   0.001539  53.993100  -0.002401  -0.002097  35.959500  -0.006001  -0.003125   0.344552  21.301200   3.670790  -0.101252   0.101735   6.003730   1.223350  -4.393020   5.529930  -0.000000   0.000000   0.000000   3.875810  13.734500  -5.623600  -4.193370  13.874200  -8.140530   2.366660  -8.438150   2.493630  -0.000000   0.000000   0.000000
  5.590460  89.175500   0.101954  -6.838510 -18.218000  -6.481970   0.787574   8.314330   0.912930   1.463030  16.639600   1.736780  -0.505715  -1.780920  -0.013698  -0.832300  -3.610420   0.009710  -1.531270  -3.008830  -3.896650 -46.515700  -4.028130 -73.455100  33.930300 -13.265600 -57.343000  12.489200  52.159300  -7.564070  48.211800  45.480600 -90.757300  -4.315210  -0.000652   0.000022   2.842400   0.000440  -0.002212  19.264400  -5.303290 -14.855100  -0.000000  -0.002530  -0.004175  -0.000000  -0.001387  -0.003068  11.626300   0.109668   0.530675  -0.000335  -0.001155  -0.000737  -0.000000  -0.000346  -0.001154   5.191900   0.757832   8.213800  -0.008272  -0.000248  -0.002480  -0.005515  -0.001056  -0.004147  -5.902720  -3.486600  30.437800 -10.277100  -0.000431  -0.008670  -6.844510  -0.001222  -0.010369   8.585960  -2.594820   5.800970  72.788200  17.521400  -2.396680   0.598268 -10.472000  12.939400 -16.213600   0.228382   1.629020 -36.241200  24.516200  61.586500  27.990400   0.004783  -0.002450   8.995190   0.000000   0.005977  30.203600   5.818380   9.878080  25.124900   0.003229  -0.000276  17.587400   0.001651   0.000455  28.450500   3.221790   5.922700  37.594300  -0.003361  -0.004363  25.037800  -0.004218  -0.000304  28.033600   2.969730   5.557380  33.242700  -0.002977  -0.001665  22.139600  -0.003022  -0.000648  35.999900   0.003338   0.000007  53.999900  -0.002402  -0.002066  35.964000  -0.006001  -0.003137   0.372506  21.222400   3.695150  -0.090544   0.034993   6.060290   1.210480  -4.367520   5.536350  -0.000000   0.000000  -0.000000   3.921600  13.648600  -5.624580  -4.201220  13.778000  -8.098050   2.316070  -8.344960   2.529750  -0.000000   0.000000   0.000000
  5.552070  89.181600   0.066281  -6.870100 -18.100000  -6.576740   0.769157   8.276600   0.940711   1.421860  16.564200   1.796300  -0.470356  -1.783840  -0.013633  -0.774696  -3.616440   0.000597  -1.532110  -3.008350  -3.917350 -46.432300  -4.085150 -73.361700  34.073600 -13.117500 -57.314100  12.663300  52.272500  -7.761050  47.860800  45.339800 -90.523700  -4.815600  -0.000737   0.000000   2.592200   0.000460  -0.002179  19.245500  -5.266560 -14.729800  -0.000000  -0.002592  -0.004240  -0.000000  -0.001417  -0.003109  11.318200   0.112818   0.567777  -0.000314  -0.001112  -0.000610  -0.000000  -0.000318  -0.001206   5.196810   0.761147   8.318300  -0.016544  -0.000145  -0.002450  -0.011030  -0.001093  -0.003880  -5.968330  -3.499240  30.266500 -10.373000  -0.000629  -0.008923  -6.908420  -0.001555  -0.010440   8.612490  -2.588210   5.790790  72.738600  17.552300  -2.396980   0.575534 -10.439300  13.014100 -16.216800   0.175287   1.642840 -36.258000  24.583200  61.631000  28.013400   0.004786  -0.002438   9.006690   0.000000   0.005982  30.229500   5.844850   9.913150  25.148300   0.003218  -0.000283  17.603800   0.001644   0.000451  28.447200   3.240600   5.956890  37.627500  -0.003359  -0.004365  25.059900  -0.004217  -0.000308  28.036200   2.989440   5.593410  33.273300  -0.002973  -0.001664  22.160000  -0.003020  -0.000624  36.004500   0.004817  -0.001524  54.006800  -0.002402  -0.002049  35.968500  -0.006002  -0.003143   0.405607  21.145300   3.722440  -0.079707  -0.031735   6.113600   1.194490  -4.342050   5.538530   0.000000   0.000000   0.000000   3.971450  13.559000  -5.631090  -4.206250  13.678800  -8.059150   2.260570  -8.254870   2.566750  -0.000000   0.000000   0.000000
